<svg width="813" height="210" xmlns="http://www.w3.org/2000/svg" xmlns:xlink="http://www.w3.org/1999/xlink">
  <defs>
    <linearGradient x1="-30.777%" y1="47.122%" x2="104.836%" y2="59.162%" id="c">
      <stop stop-color="#392DD1" offset="0%"/>
      <stop stop-color="#A91B78" offset="66.29%"/>
      <stop stop-color="#FB542B" offset="100%"/>
    </linearGradient>
    <path d="M517 76.265l-39 51h39v-51zm-64 73.543v-20.975l60.503-81.568h27.029v80.672H557v21.871h-16.468v25.457h-25.418v-25.457H453zm-41-39.133c0-12.931-1.593-22.9-4.772-29.904-3.183-7.004-9.395-10.506-18.638-10.506-9.364 0-15.639 3.502-18.818 10.506-3.183 7.005-4.772 16.973-4.772 29.904 0 13.052 1.59 23.079 4.772 30.083 3.179 7.005 9.454 10.507 18.818 10.507 9.243 0 15.455-3.502 18.638-10.507 3.179-7.004 4.772-17.03 4.772-30.083zm-72 0c0-42.938 16.197-64.41 48.59-64.41 17.155 0 29.514 5.757 37.072 17.272C433.221 75.05 437 90.767 437 110.675c0 20.033-3.78 35.803-11.338 47.318-7.558 11.514-19.917 17.272-37.072 17.272-32.393 0-48.59-21.528-48.59-64.59zm-54-34.41l-39 51h39v-51zm-65 73.543v-20.975l60.503-81.568h27.029v80.672H325v21.871h-16.468v25.457h-25.418v-25.457H221z" id="b"/>
    <filter x="-10.9%" y="-20.5%" width="121.7%" height="156.6%" filterUnits="objectBoundingBox" id="a">
      <feOffset dy="10" in="SourceAlpha" result="shadowOffsetOuter1"/>
      <feGaussianBlur stdDeviation="10.5" in="shadowOffsetOuter1" result="shadowBlurOuter1"/>
      <feColorMatrix values="0 0 0 0 0.152941176 0 0 0 0 0.180392157 0 0 0 0 0.250980392 0 0 0 0.2 0" in="shadowBlurOuter1"/>
    </filter>
    <linearGradient x1="-9.435%" y1="49.965%" x2="113.092%" y2="50.036%" id="f">
      <stop stop-color="#E3380E" offset="0%"/>
      <stop stop-color="#FB542B" offset="100%"/>
    </linearGradient>
    <path d="M0 95.265c0-1.657 1.35-3 3-3h153c1.657 0 3 1.346 3 3 0 1.657-1.35 3-3 3H3c-1.657 0-3-1.347-3-3z" id="e"/>
    <filter x="-23%" y="-441.7%" width="145.9%" height="1316.7%" filterUnits="objectBoundingBox" id="d">
      <feOffset dy="10" in="SourceAlpha" result="shadowOffsetOuter1"/>
      <feGaussianBlur stdDeviation="10.5" in="shadowOffsetOuter1" result="shadowBlurOuter1"/>
      <feColorMatrix values="0 0 0 0 0.152941176 0 0 0 0 0.180392157 0 0 0 0 0.250980392 0 0 0 0.2 0" in="shadowBlurOuter1"/>
    </filter>
    <linearGradient x1="-9.435%" y1="49.943%" x2="113.092%" y2="50.059%" id="i">
      <stop stop-color="#FB542B" offset="0%"/>
      <stop stop-color="#E3380E" offset="100%"/>
    </linearGradient>
    <path d="M651 101.265c0-1.657 1.35-3 3.004-3h117.992a3.004 3.004 0 0 1 3.004 3c0 1.657-1.35 3-3.004 3H654.004a3.004 3.004 0 0 1-3.004-3z" id="h"/>
    <filter x="-29.4%" y="-441.7%" width="158.9%" height="1316.7%" filterUnits="objectBoundingBox" id="g">
      <feOffset dy="10" in="SourceAlpha" result="shadowOffsetOuter1"/>
      <feGaussianBlur stdDeviation="10.5" in="shadowOffsetOuter1" result="shadowBlurOuter1"/>
      <feColorMatrix values="0 0 0 0 0.152941176 0 0 0 0 0.180392157 0 0 0 0 0.250980392 0 0 0 0.2 0" in="shadowBlurOuter1"/>
    </filter>
    <linearGradient x1="35.192%" y1="49.68%" x2="146.327%" y2="51.107%" id="l">
      <stop stop-color="#392DD1" offset="0%"/>
      <stop stop-color="#FF4343" offset="100%"/>
    </linearGradient>
    <path d="M136 63.265c0-1.657 1.334-3 3.01-3h68.98a3.007 3.007 0 0 1 3.01 3c0 1.657-1.334 3-3.01 3h-68.98a3.007 3.007 0 0 1-3.01-3z" id="k"/>
    <filter x="-48.7%" y="-441.7%" width="197.3%" height="1316.7%" filterUnits="objectBoundingBox" id="j">
      <feOffset dy="10" in="SourceAlpha" result="shadowOffsetOuter1"/>
      <feGaussianBlur stdDeviation="10.5" in="shadowOffsetOuter1" result="shadowBlurOuter1"/>
      <feColorMatrix values="0 0 0 0 0.152941 0 0 0 0 0.180392 0 0 0 0 0.25098 0 0 0 0.2 0" in="shadowBlurOuter1"/>
    </filter>
    <linearGradient x1="35.192%" y1="49.751%" x2="146.327%" y2="50.862%" id="o">
      <stop stop-color="#392DD1" offset="0%"/>
      <stop stop-color="#FF4343" offset="100%"/>
    </linearGradient>
    <path d="M608 141.265c0-1.657 1.335-3 3-3h79c1.657 0 3 1.346 3 3 0 1.657-1.335 3-3 3h-79c-1.657 0-3-1.347-3-3z" id="n"/>
    <filter x="-42.9%" y="-441.7%" width="185.9%" height="1316.7%" filterUnits="objectBoundingBox" id="m">
      <feOffset dy="10" in="SourceAlpha" result="shadowOffsetOuter1"/>
      <feGaussianBlur stdDeviation="10.5" in="shadowOffsetOuter1" result="shadowBlurOuter1"/>
      <feColorMatrix values="0 0 0 0 0.152941 0 0 0 0 0.180392 0 0 0 0 0.25098 0 0 0 0.2 0" in="shadowBlurOuter1"/>
    </filter>
    <linearGradient x1="-12.05%" y1="49.883%" x2="93.923%" y2="50.493%" id="r">
      <stop stop-color="#FF4343" offset="0%"/>
      <stop stop-color="#392DD1" offset="100%"/>
    </linearGradient>
    <path d="M593 63.265c0-1.657 1.35-3 3.004-3h117.992a3.004 3.004 0 0 1 3.004 3c0 1.657-1.35 3-3.004 3H596.004a3.004 3.004 0 0 1-3.004-3z" id="q"/>
    <filter x="-29.4%" y="-441.7%" width="158.9%" height="1316.7%" filterUnits="objectBoundingBox" id="p">
      <feOffset dy="10" in="SourceAlpha" result="shadowOffsetOuter1"/>
      <feGaussianBlur stdDeviation="10.5" in="shadowOffsetOuter1" result="shadowBlurOuter1"/>
      <feColorMatrix values="0 0 0 0 0.152941 0 0 0 0 0.180392 0 0 0 0 0.25098 0 0 0 0.2 0" in="shadowBlurOuter1"/>
    </filter>
    <linearGradient x1="35.192%" y1="49.308%" x2="146.327%" y2="52.394%" id="u">
      <stop stop-color="#FF4343" offset="0%"/>
      <stop stop-color="#392DD1" offset="100%"/>
    </linearGradient>
    <path d="M630 25.265c0-1.657 1.338-3 3-3h45c1.657 0 3 1.346 3 3 0 1.657-1.338 3-3 3h-45c-1.657 0-3-1.347-3-3z" id="t"/>
    <filter x="-71.6%" y="-441.7%" width="243.1%" height="1316.7%" filterUnits="objectBoundingBox" id="s">
      <feOffset dy="10" in="SourceAlpha" result="shadowOffsetOuter1"/>
      <feGaussianBlur stdDeviation="10.5" in="shadowOffsetOuter1" result="shadowBlurOuter1"/>
      <feColorMatrix values="0 0 0 0 0.152941 0 0 0 0 0.180392 0 0 0 0 0.25098 0 0 0 0.2 0" in="shadowBlurOuter1"/>
    </filter>
    <linearGradient x1="35.192%" y1="49.83%" x2="146.327%" y2="50.587%" id="x">
      <stop stop-color="#FF4343" offset="0%"/>
      <stop stop-color="#392DD1" offset="100%"/>
    </linearGradient>
    <path d="M73 138.265c0-1.657 1.34-3 3-3h97c1.657 0 3 1.346 3 3 0 1.657-1.34 3-3 3H76c-1.657 0-3-1.347-3-3z" id="w"/>
    <filter x="-35.4%" y="-441.7%" width="170.9%" height="1316.7%" filterUnits="objectBoundingBox" id="v">
      <feOffset dy="10" in="SourceAlpha" result="shadowOffsetOuter1"/>
      <feGaussianBlur stdDeviation="10.5" in="shadowOffsetOuter1" result="shadowBlurOuter1"/>
      <feColorMatrix values="0 0 0 0 0.152941 0 0 0 0 0.180392 0 0 0 0 0.25098 0 0 0 0.2 0" in="shadowBlurOuter1"/>
    </filter>
    <circle id="z" cx="578.73" cy="35.943" r="14"/>
    <filter x="-67.9%" y="-50%" width="235.7%" height="235.7%" filterUnits="objectBoundingBox" id="y">
      <feOffset dy="5" in="SourceAlpha" result="shadowOffsetOuter1"/>
      <feGaussianBlur stdDeviation="5.5" in="shadowOffsetOuter1" result="shadowBlurOuter1"/>
      <feColorMatrix values="0 0 0 0 0.152941 0 0 0 0 0.180392 0 0 0 0 0.25098 0 0 0 0.2 0" in="shadowBlurOuter1"/>
    </filter>
    <linearGradient x1="0%" y1="50.706%" y2="50.706%" id="C">
      <stop stop-color="#FB542B" offset="0%"/>
      <stop stop-color="#E3380E" offset="100%"/>
    </linearGradient>
    <ellipse id="B" cx="186.865" cy="25.104" rx="10.865" ry="10.839"/>
    <filter x="-112.7%" y="-66.9%" width="325.5%" height="326%" filterUnits="objectBoundingBox" id="A">
      <feOffset dy="10" in="SourceAlpha" result="shadowOffsetOuter1"/>
      <feGaussianBlur stdDeviation="6.5" in="shadowOffsetOuter1" result="shadowBlurOuter1"/>
      <feColorMatrix values="0 0 0 0 0.152941 0 0 0 0 0.180392 0 0 0 0 0.25098 0 0 0 0.2 0" in="shadowBlurOuter1"/>
    </filter>
    <linearGradient x1="35.192%" y1="0%" x2="146.327%" y2="222.965%" id="F">
      <stop stop-color="#392DD1" offset="0%"/>
      <stop stop-color="#FF4343" offset="100%"/>
    </linearGradient>
    <circle id="E" cx="98" cy="25" r="25"/>
    <filter x="-40%" y="-26%" width="180%" height="180%" filterUnits="objectBoundingBox" id="D">
      <feOffset dy="7" in="SourceAlpha" result="shadowOffsetOuter1"/>
      <feGaussianBlur stdDeviation="5.5" in="shadowOffsetOuter1" result="shadowBlurOuter1"/>
      <feColorMatrix values="0 0 0 0 0.152941 0 0 0 0 0.180392 0 0 0 0 0.25098 0 0 0 0.2 0" in="shadowBlurOuter1"/>
    </filter>
    <circle id="H" cx="733" cy="141.265" r="9"/>
    <filter x="-111.1%" y="-72.2%" width="322.2%" height="322.2%" filterUnits="objectBoundingBox" id="G">
      <feOffset dy="7" in="SourceAlpha" result="shadowOffsetOuter1"/>
      <feGaussianBlur stdDeviation="5.5" in="shadowOffsetOuter1" result="shadowBlurOuter1"/>
      <feColorMatrix values="0 0 0 0 0.152941 0 0 0 0 0.180392 0 0 0 0 0.25098 0 0 0 0.2 0" in="shadowBlurOuter1"/>
    </filter>
    <linearGradient x1="0%" y1="50.706%" y2="50.706%" id="K">
      <stop stop-color="#FB542B" offset="0%"/>
      <stop stop-color="#E3380E" offset="100%"/>
    </linearGradient>
    <rect id="J" x="665" y="52.265" width="28" height="28" rx="7.841"/>
    <filter x="-87.5%" y="-51.8%" width="275%" height="275%" filterUnits="objectBoundingBox" id="I">
      <feOffset dy="10" in="SourceAlpha" result="shadowOffsetOuter1"/>
      <feGaussianBlur stdDeviation="6.5" in="shadowOffsetOuter1" result="shadowBlurOuter1"/>
      <feColorMatrix values="0 0 0 0 0.152941 0 0 0 0 0.180392 0 0 0 0 0.25098 0 0 0 0.2 0" in="shadowBlurOuter1"/>
    </filter>
    <rect id="M" x="73" y="80.265" width="28" height="28" rx="7.841"/>
    <filter x="-67.9%" y="-50%" width="235.7%" height="235.7%" filterUnits="objectBoundingBox" id="L">
      <feOffset dy="5" in="SourceAlpha" result="shadowOffsetOuter1"/>
      <feGaussianBlur stdDeviation="5.5" in="shadowOffsetOuter1" result="shadowBlurOuter1"/>
      <feColorMatrix values="0 0 0 0 0.152941 0 0 0 0 0.180392 0 0 0 0 0.25098 0 0 0 0.2 0" in="shadowBlurOuter1"/>
    </filter>
    <linearGradient x1="5.709%" y1="-2.97%" x2="98.47%" y2="107.826%" id="N">
      <stop stop-color="#F0F0F0" offset="0%"/>
      <stop stop-color="#F2EDFD" offset="100%"/>
    </linearGradient>
  </defs>
  <g transform="translate(19 4)" fill="none" fill-rule="evenodd">
    <use fill="#000" filter="url(#a)" xlink:href="#b"/>
    <use fill="url(#c)" xlink:href="#b"/>
    <use fill="#000" filter="url(#d)" xlink:href="#e"/>
    <use fill="url(#f)" xlink:href="#e"/>
    <use fill="#000" filter="url(#g)" xlink:href="#h"/>
    <use fill="url(#i)" xlink:href="#h"/>
    <use fill="#000" filter="url(#j)" xlink:href="#k"/>
    <use fill="url(#l)" xlink:href="#k"/>
    <use fill="#000" filter="url(#m)" xlink:href="#n"/>
    <use fill="url(#o)" xlink:href="#n"/>
    <use fill="#000" filter="url(#p)" xlink:href="#q"/>
    <use fill="url(#r)" xlink:href="#q"/>
    <use fill="#000" filter="url(#s)" xlink:href="#t"/>
    <use fill="url(#u)" xlink:href="#t"/>
    <use fill="#000" filter="url(#v)" xlink:href="#w"/>
    <use fill="url(#x)" xlink:href="#w"/>
    <g fill-rule="nonzero">
      <use fill="#000" filter="url(#y)" xlink:href="#z"/>
      <use fill="#FFF" xlink:href="#z"/>
    </g>
    <g>
      <use fill="#000" filter="url(#A)" xlink:href="#B"/>
      <use fill="url(#C)" xlink:href="#B"/>
    </g>
    <g fill-rule="nonzero">
      <use fill="#000" filter="url(#D)" xlink:href="#E"/>
      <use fill="url(#F)" xlink:href="#E"/>
    </g>
    <g fill-rule="nonzero">
      <use fill="#000" filter="url(#G)" xlink:href="#H"/>
      <use fill="url(#F)" xlink:href="#H"/>
    </g>
    <g>
      <use fill="#000" filter="url(#I)" xlink:href="#J"/>
      <use fill="url(#K)" xlink:href="#J"/>
    </g>
    <g fill-rule="nonzero">
      <use fill="#000" filter="url(#L)" xlink:href="#M"/>
      <use fill="#FFF" xlink:href="#M"/>
    </g>
    <ellipse fill="url(#N)" fill-rule="nonzero" cx="221.086" cy="15.334" rx="7.086" ry="7.069"/>
  </g>
</svg>